<svg width="22" height="22" viewBox="0 0 22 22" fill="none" xmlns="http://www.w3.org/2000/svg">
<path d="M9.63664 0.96324L9.63675 0.963224C9.90236 0.92654 10.4031 0.905357 10.8982 0.90089C11.3933 0.896425 11.8941 0.908571 12.1598 0.940681L12.1598 0.940687C14.6863 1.24732 17.0686 2.52762 18.6772 4.43611L18.6773 4.43615C19.983 5.98701 20.8072 7.88968 21.0369 9.86522L21.037 9.86605C21.0712 10.1833 21.0788 10.7425 21.0654 11.2864C21.052 11.8289 21.0175 12.3687 20.9645 12.6458C20.7666 13.7353 20.4604 14.6552 19.9701 15.6282C19.97 15.6283 19.97 15.6283 19.97 15.6284L19.6299 16.3135L20.3511 17.9316L20.3511 17.9317C20.716 18.7515 20.9028 19.1728 20.9978 19.4277C21.0457 19.5561 21.072 19.6467 21.0858 19.7276C21.0996 19.8089 21.1 19.8768 21.1 19.9549C21.1 20.0912 21.0958 20.1882 21.0736 20.2772C21.0509 20.3681 21.011 20.4444 20.9518 20.5425L20.9518 20.5425L20.9507 20.5442C20.8581 20.6907 20.7137 20.8352 20.5675 20.928L20.5675 20.928L20.5648 20.9296C20.4657 20.9883 20.3902 21.0284 20.2974 21.0512C20.2069 21.0733 20.1054 21.0775 19.9565 21.0775H19.6175H19.5962L19.5767 21.0687L17.9223 20.3276L17.9222 20.3275L16.3184 19.6114L16.0951 19.7381C16.095 19.7381 16.095 19.7381 16.095 19.7381C14.9829 20.3738 13.6866 20.8245 12.421 21.0094C11.6897 21.1179 10.3915 21.1315 9.68175 21.0364L9.68151 21.0364C7.76285 20.7748 5.99732 19.9945 4.46696 18.7191C3.94815 18.2899 3.57344 17.9009 3.09297 17.3074L3.09261 17.307C1.93031 15.8545 1.16939 14.0375 0.9442 12.1705L0.944183 12.1704C0.91443 11.9206 0.9 11.4566 0.9 10.9976C0.9 10.5386 0.91443 10.0745 0.944182 9.82475L0.944213 9.8245C1.11986 8.38146 1.65979 6.8447 2.40814 5.65302C4.0158 3.09189 6.65496 1.37814 9.63664 0.96324ZM12.1779 2.63924L12.1779 2.63924C11.0942 2.48046 9.85053 2.55561 8.82937 2.83326C5.87146 3.64996 3.59283 5.95375 2.81703 8.92414L2.81699 8.92427C2.48244 10.1981 2.48244 11.797 2.81699 13.0708L2.81703 13.071C3.79574 16.8187 7.14132 19.4263 10.966 19.4307C12.6376 19.4307 13.9932 19.0474 15.436 18.1683L15.4365 18.1679C15.8327 17.9299 15.9638 17.8634 16.1614 17.8634C16.2629 17.8634 16.3998 17.902 16.6329 17.9924C16.8702 18.0844 17.2213 18.2361 17.7584 18.4748C18.1326 18.6399 18.4743 18.7881 18.7235 18.8939C18.7998 18.9263 18.8673 18.9547 18.9243 18.9783C18.9003 18.9198 18.8714 18.8503 18.8381 18.7714C18.7319 18.5198 18.5827 18.1754 18.4157 17.7985L18.4156 17.7983C18.1904 17.287 18.038 16.9303 17.9418 16.6842C17.8938 16.5612 17.8591 16.4642 17.8363 16.3884C17.8142 16.3148 17.8006 16.2531 17.8006 16.2041C17.8006 16.0283 17.8763 15.8701 18.1051 15.4956C19.4504 13.2874 19.7539 10.7192 18.9563 8.32769L18.9563 8.32764C17.9514 5.3091 15.3156 3.09815 12.1779 2.63924Z" fill="white" stroke="white" stroke-width="0.2"/>
</svg>
