<svg width="22" height="22" viewBox="0 0 22 22" fill="none" xmlns="http://www.w3.org/2000/svg">
<path d="M20.9904 17.4221L21.0903 17.4256C21.1083 16.9169 21.0995 16.7461 21.0207 16.4121L21.0206 16.4118C20.8098 15.5313 20.3098 14.7701 19.5682 14.2115C19.4219 14.1006 19.1918 13.9711 18.9564 13.8579C18.7205 13.7444 18.4711 13.6434 18.2844 13.592L18.2833 13.5917C18.0607 13.5331 17.7451 13.4992 17.4312 13.4908C17.1171 13.4823 16.7953 13.499 16.5596 13.5457L16.5587 13.5459C15.7663 13.7108 15.0648 14.1006 14.5059 14.6963L14.5052 14.697L14.2437 14.981L11.3196 13.5142L11.3194 13.5141C10.4958 13.1033 9.74716 12.726 9.2045 12.4488C8.93311 12.3101 8.71357 12.1966 8.56204 12.1165C8.48616 12.0764 8.42797 12.0449 8.38905 12.0231C8.38873 12.0229 8.38842 12.0227 8.38811 12.0225C8.39069 12.0088 8.3937 11.9932 8.39708 11.9759C8.40924 11.9141 8.42587 11.8331 8.44368 11.7484C8.44369 11.7484 8.44369 11.7484 8.44369 11.7484L20.9904 17.4221ZM20.9904 17.4221C21.0082 16.9174 20.9993 16.7566 20.9234 16.4351L20.9904 17.4221ZM20.9904 17.4221L21.0903 17.4253C21.0791 17.7715 21.0565 18.0213 21.003 18.254C20.9493 18.4874 20.8656 18.6991 20.7369 18.9701L20.7366 18.9707C20.2503 19.9757 19.3016 20.7413 18.2143 21.0029V21.0029L18.2141 21.003C17.4439 21.1864 16.4526 21.1047 15.7619 20.8007L15.7617 20.8006C15.2006 20.5522 14.6114 20.0766 14.2223 19.5592C14.1114 19.4129 13.9819 19.1827 13.8686 18.9471C13.7552 18.7111 13.6542 18.4616 13.6028 18.2748L13.6026 18.2741C13.555 18.0955 13.5224 17.7815 13.5084 17.4786C13.4944 17.1768 13.4981 16.8679 13.5293 16.699C13.5294 16.6987 13.5294 16.6985 13.5295 16.6982L13.557 16.536L10.5603 15.0373L10.5602 15.0373L7.56005 13.5324L7.26717 13.8101L7.26694 13.8103C6.8706 14.1837 6.33459 14.4854 5.76437 14.668L5.76437 14.668L5.76289 14.6684C5.45354 14.7622 5.31186 14.7754 4.68464 14.7754C4.34295 14.7754 4.15369 14.7734 3.99841 14.7528C3.84006 14.7318 3.71853 14.6917 3.51415 14.6228L3.51346 14.6226C2.22797 14.1787 1.30064 13.1792 0.993177 11.8941L20.9904 17.4221ZM5.78648 7.32267C6.33986 7.49656 6.88007 7.80749 7.26688 8.17137L7.26717 8.17165L7.56005 8.44939L10.5602 6.9445L10.5603 6.94445L13.557 5.44571L13.5295 5.28356C13.5294 5.28329 13.5294 5.28302 13.5293 5.28276C13.4981 5.11387 13.4944 4.80493 13.5084 4.50312C13.5224 4.20022 13.555 3.88623 13.6026 3.70766L13.6028 3.70691C13.6542 3.52012 13.7552 3.27067 13.8692 3.03357C13.983 2.79674 14.1136 2.56451 14.2264 2.41398L14.2267 2.41358L5.78618 7.32257C5.78628 7.3226 5.78638 7.32263 5.78648 7.32267ZM5.78648 7.32267C5.55931 7.24938 5.21518 7.20541 4.87332 7.19189C4.53093 7.17834 4.17764 7.19484 3.9313 7.24877L5.78648 7.32267ZM21.0206 5.57005L21.0207 5.56964C21.0995 5.23578 21.1083 5.06059 21.0948 4.53476L21.0948 4.53394C21.0768 4.00252 21.0538 3.83965 20.9467 3.52275L20.9466 3.52263C20.5347 2.30947 19.6856 1.46039 18.46 1.03956L18.4596 1.03941C18.3046 0.986973 18.1893 0.95462 18.0368 0.935022C17.887 0.915791 17.7032 0.909096 17.4114 0.904636C16.8603 0.891201 16.666 0.904272 16.3758 0.97917C16.3757 0.979197 16.3756 0.979223 16.3755 0.97925L16.4005 1.07608L21.0206 5.57005ZM21.0206 5.57005C20.7595 6.65613 20.067 7.55118 19.0853 8.06054L21.0206 5.57005ZM8.39708 10.0058C8.40924 10.0677 8.42587 10.1487 8.44368 10.2333L17.4768 8.48701C17.4768 8.48701 17.4767 8.48702 17.4767 8.48702C16.3179 8.54197 15.2984 8.12854 14.5059 7.28549L14.5052 7.28474L14.2437 7.00075L11.3196 8.46758L11.3194 8.46768C10.4958 8.87848 9.74716 9.25571 9.2045 9.53297C8.93311 9.67164 8.71357 9.78513 8.56204 9.86526C8.48616 9.90539 8.42797 9.93681 8.38905 9.9587C8.38873 9.95888 8.38842 9.95906 8.38811 9.95923C8.39069 9.97295 8.3937 9.98857 8.39708 10.0058ZM19.1604 5.73262L19.1607 5.73202C19.8196 4.49087 19.2117 3.01601 17.8994 2.62801C17.7428 2.58274 17.5071 2.5595 17.2704 2.56169C17.0326 2.56388 16.8093 2.59161 16.6755 2.6395C15.1056 3.20586 14.6602 5.04442 15.8014 6.19047C16.4814 6.86631 17.4784 7.02221 18.2951 6.57974L18.2956 6.57947C18.4474 6.49833 18.6273 6.35773 18.7895 6.19877C18.9521 6.0394 19.0891 5.86918 19.1604 5.73262ZM5.31154 8.94271L5.31146 8.94268C4.44396 8.6747 3.44462 9.03232 2.92385 9.80477C2.78304 10.0183 2.70395 10.1664 2.65794 10.3321C2.61153 10.4992 2.59685 10.6911 2.59685 10.9953V11.5347L2.77393 11.8932C2.77394 11.8932 2.77395 11.8932 2.77396 11.8933C3.46303 13.2803 5.24541 13.5533 6.26735 12.4374C7.33367 11.2726 6.82239 9.40804 5.31154 8.94271ZM17.822 15.2189L17.8218 15.2188C17.6786 15.1814 17.4868 15.1618 17.2929 15.1618C17.0989 15.1618 16.911 15.1815 16.7752 15.2185C15.835 15.4793 15.1698 16.3387 15.1655 17.2884C15.1655 17.8462 15.3556 18.3178 15.7723 18.7604L15.773 18.7611C16.1861 19.2085 16.6903 19.4211 17.3156 19.4212C18.5106 19.4168 19.4259 18.5013 19.4304 17.306C19.4304 16.6721 19.2182 16.1762 18.7611 15.7489C18.4551 15.4644 18.1838 15.3125 17.822 15.2189Z" fill="white" stroke="white" stroke-width="0.2"/>
</svg>
