<svg width="22" height="23" viewBox="0 0 22 23" fill="none" xmlns="http://www.w3.org/2000/svg">
<path d="M9.90172 1.00284C7.01175 1.31294 4.39311 2.69548 2.54973 4.89203C1.25333 6.43393 0.447925 8.18256 0.0904464 10.2327C0.00861394 10.7021 0 10.9304 0 11.9985C0 13.0667 0.00861394 13.2949 0.0904464 13.7644C0.495301 16.0902 1.46868 18.0154 3.07518 19.6822C4.72475 21.3963 6.80501 22.4817 9.23414 22.9081C9.7036 22.9899 9.93187 22.9985 11 22.9985C12.3481 22.9985 12.7529 22.9555 13.8125 22.6841C17.6112 21.7021 20.7036 18.6097 21.6856 14.811C21.9569 13.7515 22 13.3466 22 11.9985C22 10.6505 21.9569 10.2456 21.6856 9.18608C20.7036 5.39164 17.6112 2.29493 13.8125 1.31294C12.8348 1.06314 12.3739 1.00715 11.1723 0.994226C10.5693 0.985613 9.99648 0.98992 9.90172 1.00284ZM12.3352 2.80315C14.4283 3.1391 16.0779 3.97896 17.5466 5.45194C18.8301 6.73111 19.6742 8.24286 20.0619 9.93119C20.3633 11.262 20.3633 12.735 20.0619 14.0659C19.5407 16.3572 18.1108 18.3987 16.0521 19.7855C15.2596 20.3196 14.0579 20.8321 13.0673 21.0604C11.7365 21.3619 10.2635 21.3619 8.93265 21.0604C6.64135 20.5393 4.59984 19.1093 3.213 17.0506C2.67893 16.2581 2.16641 15.0565 1.93814 14.0659C1.63665 12.735 1.63665 11.262 1.93814 9.93119C2.32576 8.24286 3.16993 6.73111 4.45341 5.45194C6.07713 3.82391 7.93344 2.96251 10.3324 2.72132C10.6727 2.68687 11.9346 2.73855 12.3352 2.80315Z" fill="white"/>
<path d="M10.8043 6.0935C10.5674 6.1538 10.3951 6.27009 10.2745 6.45098L10.1583 6.63187L10.1453 9.45294L10.1367 12.2783L10.2315 12.4721C10.3176 12.6401 10.5459 12.8296 12.0318 13.9494C12.9664 14.6558 13.8321 15.2889 13.9484 15.3621C14.1379 15.4784 14.1939 15.4913 14.448 15.4784C14.9605 15.4525 15.2749 15.1295 15.2749 14.6213C15.2749 14.182 15.2534 14.1561 13.4703 12.8167L11.8595 11.6107L11.8509 9.1213L11.838 6.63187L11.7174 6.45098C11.5365 6.17102 11.1273 6.01167 10.8043 6.0935Z" fill="white"/>
</svg>
