<svg width="26" height="18" viewBox="0 0 26 18" fill="none" xmlns="http://www.w3.org/2000/svg">
<path d="M11.4082 0.656174C8.75391 1.07219 6.0293 2.49016 3.35742 4.84563C2.16797 5.89446 0.574219 7.62297 0.28125 8.17961C0.164062 8.40227 0.140625 8.52532 0.140625 8.99993C0.140625 9.47453 0.164062 9.59758 0.28125 9.82024C0.703125 10.623 2.92383 12.8788 4.53516 14.1386C6.32227 15.539 8.49023 16.6581 10.2949 17.1093C11.3906 17.3847 12.041 17.455 13.2891 17.4198C14.4961 17.3906 15.0586 17.3085 16.1309 16.998C19.1191 16.1308 22.5059 13.7284 25.1777 10.5644C25.7227 9.91985 25.8457 9.66203 25.8809 9.11711C25.9277 8.2968 25.6406 7.83977 24.0176 6.16399C22.2188 4.30657 20.4023 2.92961 18.4512 1.94524C17.0977 1.25969 15.8555 0.849533 14.5488 0.650314C13.8281 0.538986 12.1172 0.544846 11.4082 0.656174ZM14.3496 2.58977C16.4766 2.92961 18.6855 4.06633 21 6.00578C21.5859 6.49797 23.1797 8.06828 23.6543 8.63078L23.9648 8.99407L23.543 9.48039C22.0195 11.2323 19.9453 12.9784 18.2051 13.9745C16.3828 15.0175 14.7188 15.5097 12.9961 15.5097C11.0332 15.5097 9.05859 14.8359 6.9082 13.4296C5.44922 12.4687 3.65039 10.8691 2.34961 9.36321L2.03906 9.00578L2.46094 8.51946C3.97852 6.7675 6.08203 5.00969 7.86328 3.99016C10.0957 2.71281 12.2461 2.24992 14.3496 2.58977Z" fill="white"/>
<path d="M11.8984 4.89844C10.4629 5.2793 9.26758 6.48047 8.89844 7.92188C8.81641 8.23242 8.78125 8.57227 8.78125 9C8.78125 10.2188 9.16211 11.1387 10.0117 11.9883C10.8613 12.8379 11.7812 13.2188 13 13.2188C14.2188 13.2188 15.1387 12.8379 15.9883 11.9883C16.8379 11.1387 17.2188 10.2188 17.2188 9C17.2188 8.57227 17.1836 8.23242 17.1016 7.92188C16.7324 6.46875 15.5312 5.26758 14.0781 4.89844C13.4746 4.74024 12.4961 4.74609 11.8984 4.89844ZM13.9551 6.9082C14.3887 7.10742 14.8926 7.60547 15.0977 8.04492C15.2383 8.34961 15.2559 8.45508 15.2559 9C15.2559 9.54492 15.2383 9.65039 15.0977 9.95508C14.8926 10.3887 14.3887 10.8926 13.9551 11.0977C13.6504 11.2383 13.5449 11.2559 13 11.2559C12.4551 11.2559 12.3496 11.2383 12.0449 11.0977C11.6113 10.8926 11.1074 10.3887 10.9023 9.95508C10.7617 9.65039 10.7441 9.54492 10.7441 9C10.7441 8.45508 10.7617 8.34961 10.8965 8.0625C11.1777 7.4707 11.6582 7.03125 12.2559 6.82031C12.7129 6.65625 13.5039 6.69727 13.9551 6.9082Z" fill="white"/>
</svg>
